<?xml version="1.0" ?><!DOCTYPE svg  PUBLIC '-//W3C//DTD SVG 1.1 Tiny//EN'  'http://www.w3.org/Graphics/SVG/1.1/DTD/svg11-tiny.dtd'><svg baseProfile="tiny" height="32px" version="1.1" viewBox="0 0 32 32" width="32px" xml:space="preserve" xmlns="http://www.w3.org/2000/svg" xmlns:xlink="http://www.w3.org/1999/xlink"><g id="Guides__x26__Forms"/><g id="Icons"><path d="M25.26,12.931c0.573,2.006,0.222,4.021-1.057,5.299c-2.222,2.222-5.114,1.185-7.337,0.266l-6.452,6.452   c-0.78,0.78-2.049,0.78-2.828,0s-0.78-2.049,0-2.828l6.452-6.452c-0.432-1.043-2.323-4.748,0.266-7.337   c1.279-1.279,3.293-1.63,5.299-1.057l-3.699,3.699l1.414,4.243l4.243,1.414L25.26,12.931 M25.835,9.528l-4.814,4.814l-2.121-0.707   l-0.707-2.121l4.814-4.814c-3.37-2.297-7.594-2.306-10.117,0.218c-2.081,2.081-2.435,5.319-1.21,8.281l-5.508,5.508   c-1.562,1.562-1.562,4.095,0,5.657c1.562,1.562,4.095,1.562,5.657,0l5.508-5.508c2.962,1.225,6.2,0.871,8.281-1.21   C28.14,17.122,28.131,12.898,25.835,9.528L25.835,9.528z"/></g></svg>