<?xml version="1.0" ?><svg height="24px" version="1.1" viewBox="0 0 24 24" width="24px" xmlns="http://www.w3.org/2000/svg" xmlns:sketch="http://www.bohemiancoding.com/sketch/ns" xmlns:xlink="http://www.w3.org/1999/xlink"><title/><desc/><defs/><g fill="none" fill-rule="evenodd" id="miu" stroke="none" stroke-width="1"><g id="Artboard-1" transform="translate(-791.000000, -443.000000)"><g id="slice" transform="translate(215.000000, 119.000000)"/><path d="M797,445.111334 C796.986195,445.044071 796.977778,445 796.977778,445 L796,445 L796,466 L796.977778,466 L796.977778,446.861676 C796.985171,446.866827 796.992579,446.871952 797,446.87705 L797,445.111334 Z M798,446.324858 C799.073777,446.817413 800.486274,446.670721 802.339618,445.569703 C805.216847,443.860425 807.359639,443.800389 809.079528,444.539906 C809.438277,444.69416 809.687036,444.854576 809.826646,444.974598 L809.996826,445.1209 L809.996826,453.223712 L809.996826,454.28872 L809.189229,453.594437 C809.12162,453.536315 808.956007,453.429516 808.693295,453.316555 C807.266586,452.7031 805.452291,452.736246 802.83901,454.28872 C801.030696,455.362987 799.326924,455.418266 798.067871,455.094309 L798.067871,454.077683 C799.107036,454.437614 800.631401,454.462893 802.339618,453.448092 C805.216847,451.738813 807.359639,451.678778 809.079528,452.418294 L809.079528,445.69988 C809.079528,445.69988 808.956007,445.551127 808.693295,445.438167 C807.266586,444.824712 805.452291,444.857858 802.83901,446.410332 C800.91825,447.551399 799.300175,447.795385 798,447.372403 L798,446.324858 Z" fill="#000000" id="editor-flag-notification-outline-stroke"/></g></g></svg>