<?xml version="1.0" ?><!DOCTYPE svg  PUBLIC '-//W3C//DTD SVG 1.1//EN'  'http://www.w3.org/Graphics/SVG/1.1/DTD/svg11.dtd'><svg enable-background="new 0 0 512 512" height="512px" id="Layer_1" version="1.1" viewBox="0 0 512 512" width="512px" xml:space="preserve" xmlns="http://www.w3.org/2000/svg" xmlns:xlink="http://www.w3.org/1999/xlink"><path d="M458.186,15.614l-14.933,5.207c-0.394,0.132-40.841,13.99-104.793,13.99  c-32.586,0-63.614-6.611-93.611-13.003C214.511,15.34,183.132,8.652,149.91,8.652c-66.245,0-88.71,14.22-91.056,15.843l-4.836,3.343  v3.685v252.425v218.704h22.454V287.938c8.936-3.486,30.842-9.703,73.437-9.703c30.853,0,59.711,6.15,90.256,12.663  c31.137,6.644,63.339,13.507,98.293,13.507c68.086,0,110.462-14.626,112.238-15.251l7.5-2.642L458.186,15.614z M435.743,270.199  c-14.527,3.958-49.283,11.753-97.284,11.753c-32.586,0-63.614-6.611-93.611-13.015c-30.338-6.468-61.717-13.156-94.938-13.156  c-36.367,0-59.546,4.287-73.437,8.432V40.787c8.991-3.487,30.951-9.681,73.437-9.681c30.853,0,59.711,6.15,90.256,12.663  c31.137,6.633,63.339,13.496,98.293,13.496c45.226,0,79.106-6.458,97.284-10.975V270.199z" fill="#37404D"/></svg>