<?xml version="1.0" ?><!DOCTYPE svg  PUBLIC '-//W3C//DTD SVG 1.1//EN'  'http://www.w3.org/Graphics/SVG/1.1/DTD/svg11.dtd'><svg enable-background="new 0 0 512 512" height="512px" id="Layer_1" version="1.1" viewBox="0 0 512 512" width="512px" xml:space="preserve" xmlns="http://www.w3.org/2000/svg" xmlns:xlink="http://www.w3.org/1999/xlink"><path d="M272,0h-32C142.781,0,64,78.797,64,176c0,68.398,39.009,127.682,96,156.812V352c0,17.672,14.312,32,32,32h128  c17.688,0,32-14.328,32-32v-19.195c56.981-29.133,96-88.412,96-156.805C448,78.797,369.188,0,272,0z M288,286.857V320h-64v-33.143  c-54.268-7.767-96-54.434-96-110.857c0-61.859,50.155-112,112-112h32c61.844,0,112,50.141,112,112  C384,232.425,342.267,279.092,288,286.857z"/><path d="M208,416h96c8.844,0,16,7.172,16,16s-7.156,16-16,16h-96c-8.845,0-16-7.172-16-16S199.156,416,208,416z"/><path d="M240,480h32c8.844,0,16,7.172,16,16s-7.156,16-16,16h-32c-8.845,0-16-7.172-16-16S231.156,480,240,480z"/></svg>