<?xml version="1.0" ?><!DOCTYPE svg  PUBLIC '-//W3C//DTD SVG 1.1//EN'  'http://www.w3.org/Graphics/SVG/1.1/DTD/svg11.dtd'><svg enable-background="new 0 0 24 24" height="24px" id="Layer_1" version="1.1" viewBox="0 0 24 24" width="24px" xml:space="preserve" xmlns="http://www.w3.org/2000/svg" xmlns:xlink="http://www.w3.org/1999/xlink"><g><path d="M23.7,3.1l-2.8-2.8c-0.4-0.4-1-0.4-1.4,0L0.3,19.5c-0.4,0.4-0.4,1,0,1.4l2.8,2.8c0.4,0.4,1,0.4,1.4,0L23.7,4.5   C24.1,4.1,24.1,3.5,23.7,3.1z M3.8,21.6l-1.4-1.4L15.2,7.4l1.4,1.4L3.8,21.6z M17.3,8.1l-1.4-1.4l4.2-4.2l1.4,1.4L17.3,8.1z"/><polygon points="12,6 12.8,3.8 15,3 12.8,2.2 12,0 11.2,2.2 9,3 11.2,3.8  "/><polygon points="5,9 5.8,6.8 8,6 5.8,5.2 5,3 4.2,5.2 2,6 4.2,6.8  "/><polygon points="21,12 20.2,14.2 18,15 20.2,15.8 21,18 21.8,15.8 24,15 21.8,14.2  "/></g></svg>