<?xml version="1.0" ?><!DOCTYPE svg  PUBLIC '-//W3C//DTD SVG 1.1//EN'  'http://www.w3.org/Graphics/SVG/1.1/DTD/svg11.dtd'><svg enable-background="new 0 0 64 64" height="64px" id="Layer_1" version="1.1" viewBox="0 0 64 64" width="64px" xml:space="preserve" xmlns="http://www.w3.org/2000/svg" xmlns:xlink="http://www.w3.org/1999/xlink"><g><path d="M10.2,40.7c0,12,9.9,21.8,22,21.8s22-9.8,22-21.8c0-6.5-2.9-12.4-8.2-16.8h3.3c2.6,0,4.2-1.5,4.2-4.1   c0-2.3-1.4-3.8-3.8-3.9c0.2-0.2,0.3-0.4,0.3-0.7c0-2.2-1.2-3.9-3.1-4.7c0.8-0.9,1.3-2.1,1.3-3.5c0-2.9-2.4-5.3-5.3-5.3   c-2.9,0-5.3,2.4-5.3,5.3c0,1.1,0.3,2.1,0.9,3c-1.7,0.2-3.1,1.1-3.9,2.5c-0.9-1-2.2-1.6-3.6-1.6c-1.1,0-2.1,0.3-2.9,0.9   c-1-2.7-3.7-4.7-6.8-4.7c-3.9,0-7.3,3.2-7.3,7.1V16c0,0,0,0,0,0c-3.5,0.2-4,2.3-4,3.6v0.2c0,2.8,2.2,4.2,4.4,4.2h4   C13.1,28.4,10.2,34.2,10.2,40.7z M42.9,3.9c1.8,0,3.3,1.5,3.3,3.3c0,1.8-1.5,3.3-3.3,3.3c-1.8,0-3.3-1.5-3.3-3.3   C39.6,5.4,41.1,3.9,42.9,3.9z M35.9,15.2c0.1-1.7,1.4-3,3.1-3c0.9,0,1.7,0.4,2.3,1.1c0.2,0.2,0.4,0.3,0.7,0.3   c0.3,0,0.5-0.1,0.7-0.3c0.7-0.6,1.4-1,2.1-1c1.8,0,3.1,1.3,3.1,3c0,0.3,0.1,0.5,0.3,0.7H35.3C35.7,15.8,35.9,15.5,35.9,15.2z    M35,37.1c0,0.2,0,0.8-0.4,1.1c-0.2,0.2-0.6,0.4-1.1,0.4c-0.5,0-0.9-0.1-1.1-0.4C32,37.9,32,37.3,32,37v-8V18h3L35,37.1z M26,18h4   v10.9c-0.1,0.4-0.5,1.7-2.1,1.7c-1.6,0-1.9-1.4-1.9-1.6V18z M16,14.4c0-2.7,2.4-5.1,5.3-5.1c2.7,0,5.1,2.1,5.2,4.8   c0,0.4,0.3,0.8,0.8,0.9c0.4,0.1,0.9-0.1,1.1-0.4c0.6-0.9,1.5-1.5,2.6-1.5c1.4,0,2.6,0.9,2.9,2.3c0.1,0.3,0.3,0.5,0.6,0.6H16V14.4z    M22,23.8c0.4-0.2,0.5-0.7,0.4-1.1c-0.1-0.4-0.5-0.7-1-0.7h-7c-0.2,0-2.4-0.1-2.4-2.2v-0.2c0-0.8,0.2-1.6,2.4-1.6H24l0,11.1   c0.1,1.2,1,3.5,3.9,3.5c0.9,0,1.5-0.2,2.1-0.6l0,4.9c0,0.2-0.1,1.6,0.9,2.6c0.4,0.5,1.2,1,2.6,1c1.4,0,2.2-0.5,2.6-1   c1-1,0.9-2.5,0.9-2.5V18h12.3c1.9,0,2.2,1,2.2,1.9c0,1-0.3,2.1-2.2,2.1H43c-0.4,0-0.8,0.3-1,0.7c-0.1,0.4,0,0.9,0.4,1.1   c6.3,4.1,9.8,10.1,9.8,16.9c0,10.9-9,19.8-20,19.8s-20-8.9-20-19.8C12.2,33.9,15.7,28,22,23.8z"/><path d="M30.9,9.9c2.2,0,3.9-1.8,3.9-3.9C34.8,3.8,33,2,30.9,2c-2.2,0-3.9,1.8-3.9,3.9C26.9,8.1,28.7,9.9,30.9,9.9z M30.9,4   c1.1,0,1.9,0.9,1.9,1.9c0,1.1-0.9,1.9-1.9,1.9c-1.1,0-1.9-0.9-1.9-1.9C28.9,4.9,29.8,4,30.9,4z"/><path d="M37.5,55.4c0.2,0,0.4-0.1,0.6-0.2c5.1-4.1,7.9-8.7,8.3-13.7c0.6-6.9-3.8-11.9-4-12.1c-0.4-0.4-1-0.5-1.4-0.1   c-0.4,0.4-0.4,1-0.1,1.4c0,0,4,4.5,3.5,10.6c-0.4,4.4-2.9,8.5-7.5,12.3c-0.4,0.3-0.5,1-0.1,1.4C36.9,55.2,37.2,55.4,37.5,55.4z"/></g></svg>