<?xml version="1.0" ?><!DOCTYPE svg  PUBLIC '-//W3C//DTD SVG 1.1//EN'  'http://www.w3.org/Graphics/SVG/1.1/DTD/svg11.dtd'><svg height="32px" style="enable-background:new 0 0 32 32;" version="1.1" viewBox="0 0 32 32" width="32px" xml:space="preserve" xmlns="http://www.w3.org/2000/svg" xmlns:xlink="http://www.w3.org/1999/xlink"><g id="_x34__audio_pause"><path d="M12.211,4.538h-1.372c-0.275,0-0.5,0.224-0.5,0.5v21.925c0,0.276,0.225,0.5,0.5,0.5h1.372c0.276,0,0.5-0.224,0.5-0.5V5.038   C12.711,4.761,12.487,4.538,12.211,4.538z"/><path d="M21.661,4.538h-1.372c-0.275,0-0.5,0.224-0.5,0.5v21.925c0,0.276,0.225,0.5,0.5,0.5h1.372c0.276,0,0.5-0.224,0.5-0.5V5.038   C22.161,4.761,21.938,4.538,21.661,4.538z"/></g></svg>