<?xml version="1.0" ?><svg enable-background="new 0 0 64 64" version="1.1" viewBox="0 0 64 64" xml:space="preserve" xmlns="http://www.w3.org/2000/svg" xmlns:xlink="http://www.w3.org/1999/xlink"><g id="outline"><path d="M32,2c16.542,0,30,13.458,30,30S48.542,62,32,62S2,48.542,2,32S15.458,2,32,2 M32,0C14.327,0,0,14.327,0,32   s14.327,32,32,32c17.673,0,32-14.327,32-32S49.673,0,32,0L32,0z"/><path d="M21.58,18.871l24.593,13.13L21.58,45.129V18.871 M19.58,15.536v32.928L50.42,32.001L19.58,15.536L19.58,15.536z"/></g></svg>