<?xml version="1.0" ?><!DOCTYPE svg  PUBLIC '-//W3C//DTD SVG 1.1//EN'  'http://www.w3.org/Graphics/SVG/1.1/DTD/svg11.dtd'><svg enable-background="new 0 0 96 96" height="96px" id="pause" version="1.1" viewBox="0 0 96 96" width="96px" xml:space="preserve" xmlns="http://www.w3.org/2000/svg" xmlns:xlink="http://www.w3.org/1999/xlink"><path d="M32,12c-6.627,0-12,5.373-12,12v48c0,6.627,5.373,12,12,12s12-5.373,12-12V24C44,17.373,38.627,12,32,12z M36,72  c0,2.209-1.791,4-4,4s-4-1.791-4-4V24c0-2.209,1.791-4,4-4s4,1.791,4,4V72z"/><path d="M64,12c-6.627,0-12,5.373-12,12v48c0,6.627,5.373,12,12,12s12-5.373,12-12V24C76,17.373,70.627,12,64,12z M68,72  c0,2.209-1.791,4-4,4s-4-1.791-4-4V24c0-2.209,1.791-4,4-4s4,1.791,4,4V72z"/></svg>