<?xml version="1.0" ?><!DOCTYPE svg  PUBLIC '-//W3C//DTD SVG 1.1//EN'  'http://www.w3.org/Graphics/SVG/1.1/DTD/svg11.dtd'><svg height="32px" id="Layer_1" style="enable-background:new 0 0 32 32;" version="1.1" viewBox="0 0 32 32" width="32px" xml:space="preserve" xmlns="http://www.w3.org/2000/svg" xmlns:xlink="http://www.w3.org/1999/xlink"><path d="M17.447,16.646C17.08,16.279,16.729,16,16,16s-1.135,0.334-1.463,0.662L10.58,20.62C10.193,21.006,10,21.469,10,22  c0,1.188,1.016,2,2,2c0.516,0,0.986-0.186,1.38-0.58L14,22.8V30c0,1.104,0.896,2,2,2s2-0.896,2-2v-7.2l0.62,0.62  C19.014,23.814,19.484,24,20,24c0.984,0,2-0.813,2-2c0-0.531-0.193-0.994-0.58-1.38L17.447,16.646z M27.952,9.05  C27.473,3.973,23.202,0,18,0c-4.841,0-8.878,3.441-9.801,8.01C8.133,8.008,8.067,8,8,8c-4.418,0-8,3.582-8,8s3.582,8,8,8h0.557  C8.212,23.409,8,22.731,8,22c0-0.727,0.201-1.399,0.562-2H8c-2.206,0-4-1.795-4-4c0-2.178,1.75-3.957,3.918-4l3.534,0.107  l0.668-3.305C12.682,6.02,15.155,4,18,4c3.111,0,5.678,2.332,5.97,5.426l0.195,2.069l1.806,1.03C27.223,13.238,28,14.57,28,16  c0,2.205-1.794,4-4,4h-0.561C23.799,20.6,24,21.273,24,22c0,0.731-0.212,1.409-0.557,2H24c4.418,0,8-3.582,8-8  C32,13.021,30.367,10.427,27.952,9.05z"/></svg>