<?xml version="1.0" ?><!DOCTYPE svg  PUBLIC '-//W3C//DTD SVG 1.1//EN'  'http://www.w3.org/Graphics/SVG/1.1/DTD/svg11.dtd'><svg enable-background="new 0 0 32 32" height="32px" id="Layer_1" version="1.1" viewBox="0 0 32 32" width="32px" xml:space="preserve" xmlns="http://www.w3.org/2000/svg" xmlns:xlink="http://www.w3.org/1999/xlink"><g><polyline fill="none" points="   649,137.999 675,137.999 675,155.999 661,155.999  " stroke="#FFFFFF" stroke-linecap="round" stroke-linejoin="round" stroke-miterlimit="10" stroke-width="2"/><polyline fill="none" points="   653,155.999 649,155.999 649,141.999  " stroke="#FFFFFF" stroke-linecap="round" stroke-linejoin="round" stroke-miterlimit="10" stroke-width="2"/><polyline fill="none" points="   661,156 653,162 653,156  " stroke="#FFFFFF" stroke-linecap="round" stroke-linejoin="round" stroke-miterlimit="10" stroke-width="2"/></g><g><path d="M15.293,25.707C15.484,25.898,15.74,26,16,26c0.129,0,0.259-0.024,0.383-0.076C16.756,25.77,17,25.404,17,25V3   c0-0.552-0.448-1-1-1s-1,0.448-1,1v19.586l-7.293-7.293c-0.391-0.391-1.023-0.391-1.414,0s-0.391,1.023,0,1.414L15.293,25.707z"/><path d="M20,22c0.256,0,0.512-0.098,0.707-0.293l5-5c0.391-0.391,0.391-1.024,0-1.414c-0.391-0.39-1.023-0.391-1.414,0.001l-5,5   c-0.391,0.391-0.391,1.023,0,1.414C19.488,21.902,19.744,22,20,22z"/><path d="M29,21c-0.553,0-1,0.447-1,1v6H4v-6c0-0.553-0.448-1-1-1s-1,0.447-1,1v7c0,0.553,0.448,1,1,1h26c0.553,0,1-0.447,1-1v-7   C30,21.447,29.553,21,29,21z"/></g></svg>