<?xml version="1.0" ?><!DOCTYPE svg  PUBLIC '-//W3C//DTD SVG 1.1//EN'  'http://www.w3.org/Graphics/SVG/1.1/DTD/svg11.dtd'><svg enable-background="new 0 0 100 100" height="100px" id="Layer_1" version="1.1" viewBox="0 0 100 100" width="100px" xml:space="preserve" xmlns="http://www.w3.org/2000/svg" xmlns:xlink="http://www.w3.org/1999/xlink"><g><path d="M93.479,0H6.522C2.925,0,0,2.925,0,6.522v67.391c0,3.597,2.925,6.521,6.522,6.521h33.882l-9.333,9.333   c-0.408,0.407-0.637,0.959-0.637,1.537v6.521c0,1.201,0.974,2.174,2.174,2.174h34.783c1.201,0,2.174-0.973,2.174-2.174v-6.521   c0-0.578-0.229-1.13-0.637-1.537l-9.333-9.333h33.883c3.596,0,6.521-2.925,6.521-6.521V6.522C100,2.925,97.074,0,93.479,0z    M6.522,4.348h86.957c1.199,0,2.174,0.976,2.174,2.174v58.696H4.348V6.522C4.348,5.323,5.323,4.348,6.522,4.348z M65.218,92.204   v3.448H34.783v-3.448l11.77-11.77h6.895L65.218,92.204z M93.479,76.087H6.522c-1.199,0-2.174-0.975-2.174-2.174v-4.348h91.305   v4.348C95.652,75.112,94.678,76.087,93.479,76.087z"/><path d="M10.87,60.869h78.261c1.201,0,2.174-0.972,2.174-2.174V10.87c0-1.201-0.973-2.174-2.174-2.174H10.87   c-1.201,0-2.174,0.973-2.174,2.174v47.826C8.696,59.897,9.669,60.869,10.87,60.869z M13.043,13.043h73.913v43.478H13.043V13.043z"/><path d="M56.785,15.217c-1.011,0-1.821,0.703-2.065,1.636c-1.962-1.423-4.293-2.221-6.762-2.221c-3.093,0-6.001,1.206-8.19,3.396   c-0.849,0.849-0.849,2.226,0,3.074c0.85,0.85,2.225,0.85,3.074,0c2.229-2.229,5.787-2.61,8.514-1.207   c-0.641,0.378-1.092,1.045-1.092,1.844c0,1.2,0.973,2.174,2.174,2.174h4.348c1.201,0,2.174-0.974,2.174-2.174v-4.348   C58.959,16.191,57.986,15.217,56.785,15.217z"/><path d="M55.248,48.463c-2.31,2.311-5.795,2.696-8.536,1.222c0.654-0.375,1.114-1.051,1.114-1.858c0-1.201-0.974-2.174-2.174-2.174   h-4.348c-1.2,0-2.174,0.973-2.174,2.174v4.348c0,1.202,0.974,2.174,2.174,2.174c1.013,0,1.825-0.705,2.067-1.643   c2.016,1.456,4.378,2.22,6.761,2.22c2.966,0,5.932-1.129,8.19-3.388c0.849-0.849,0.849-2.225,0-3.074   C57.473,47.614,56.097,47.614,55.248,48.463z"/><path d="M69.565,26.087c-4.796,0-8.696,3.901-8.696,8.696c0,4.794,3.9,8.695,8.696,8.695s8.695-3.901,8.695-8.695   C78.261,29.988,74.361,26.087,69.565,26.087z M69.565,39.13c-2.397,0-4.348-1.95-4.348-4.348s1.95-4.348,4.348-4.348   c2.396,0,4.348,1.95,4.348,4.348S71.962,39.13,69.565,39.13z"/><path d="M38.726,39.983l-6.347-12.694c-0.737-1.473-3.152-1.473-3.889,0l-6.522,13.043c-0.336,0.674-0.3,1.475,0.096,2.116   c0.396,0.64,1.095,1.03,1.849,1.03h13.043c0.014-0.001,0.029-0.002,0.043,0c1.201,0,2.174-0.973,2.174-2.174   C39.174,40.808,39.007,40.349,38.726,39.983z M27.431,39.13l3.004-6.009l3.004,6.009H27.431z"/></g></svg>