<?xml version="1.0" ?><!DOCTYPE svg  PUBLIC '-//W3C//DTD SVG 1.1//EN'  'http://www.w3.org/Graphics/SVG/1.1/DTD/svg11.dtd'><svg enable-background="new 0 0 141.73 141.73" height="141.73px" id="Warstwa_1" version="1.1" viewBox="0 0 141.73 141.73" width="141.73px" xml:space="preserve" xmlns="http://www.w3.org/2000/svg" xmlns:xlink="http://www.w3.org/1999/xlink"><g><path d="M101.628,40.092c-8.22-8.22-19.149-12.746-30.774-12.746c-11.624,0-22.553,4.526-30.772,12.746   c-16.968,16.969-16.967,44.578,0.001,61.546c8.22,8.22,19.149,12.747,30.773,12.747s22.553-4.526,30.772-12.746   s12.747-19.148,12.747-30.773S109.848,48.312,101.628,40.092z M100.214,100.225c-7.842,7.842-18.269,12.16-29.358,12.16   s-21.517-4.319-29.359-12.161c-16.188-16.188-16.188-42.529-0.001-58.718c7.842-7.842,18.269-12.16,29.358-12.16   c11.091,0,21.518,4.318,29.36,12.16c7.842,7.843,12.161,18.269,12.161,29.359S108.056,92.382,100.214,100.225z" fill="#575756"/><path d="M80.193,58.525H61.517c-1.654,0-3,1.346-3,3v18.678c0,1.654,1.346,3,3,3h18.677c1.654,0,3-1.346,3-3V61.525   C83.193,59.871,81.848,58.525,80.193,58.525z M81.193,80.203c0,0.552-0.448,1-1,1H61.517c-0.552,0-1-0.448-1-1V61.525   c0-0.552,0.448-1,1-1h18.677c0.552,0,1,0.448,1,1V80.203z" fill="#575756"/></g></svg>