<?xml version="1.0" ?><!DOCTYPE svg  PUBLIC '-//W3C//DTD SVG 1.1//EN'  'http://www.w3.org/Graphics/SVG/1.1/DTD/svg11.dtd'><svg enable-background="new 0 0 128 128" height="128px" id="Слой_1" version="1.1" viewBox="0 0 128 128" width="128px" xml:space="preserve" xmlns="http://www.w3.org/2000/svg" xmlns:xlink="http://www.w3.org/1999/xlink"><g><path d="M119.25,67.8457031v-0.0126953h-0.0185547L115.4375,65.2138672L105.125,58.09375v9.7392578H92.4277344    c0.0009766,0.0068359,0.0009766,0.0126953,0.0019531,0.0185547C90.2431641,52.3222656,76.8730469,40.3330078,60.75,40.3330078    c-16.1166992,0-29.4824219,11.9794922-31.6772461,27.5H2.25v9h36.9643555C38.9111328,75.3798828,38.75,73.875,38.75,72.3330078    c0-12.1308594,9.8691406-22,22-22s22,9.8691406,22,22c0,1.5419922-0.1611328,3.046875-0.4648438,4.5h10.1416016    c0.0009766-0.0068359,0.0019531-0.0126953,0.0029297-0.0195313c-0.0009766,0.0068359-0.0009766,0.0136719-0.0019531,0.0195313    H105.125v9.7382813l10.3125-7.1191406l3.7939453-2.6191406H119.25v-0.0126953l6.5-4.4873047L119.25,67.8457031z M60.75,56.9995117    c-8.4677734,0-15.3330078,6.8652344-15.3330078,15.3334961c0,8.46875,6.8652344,15.3339844,15.3330078,15.3339844    c8.46875,0,15.3330078-6.8652344,15.3330078-15.3339844C76.0830078,63.8647461,69.21875,56.9995117,60.75,56.9995117z" fill="#373737"/></g></svg>